<?xml version="1.0" encoding="UTF-8"?>
<svg id="Layer_2" data-name="Layer 2" xmlns="http://www.w3.org/2000/svg" viewBox="0 0 628.16 625.53">
  <defs>
    <style>
      .cls-1 {
        fill: #f9ea37;
      }
    </style>
  </defs>
  <g id="Vrstva_1" data-name="Vrstva 1">
    <path class="cls-1" d="m628.16,316.63v-7.74h-264.15c-.07-.92-.16-1.83-.28-2.73l258.37-54.92-1.61-7.57-258.37,54.92c-.26-.88-.51-1.77-.82-2.63l241.27-107.42-3.15-7.06-241.3,107.44c-.44-.81-.83-1.64-1.32-2.42l213.63-155.22-4.55-6.25-213.69,155.26c-.6-.7-1.12-1.46-1.76-2.13l176.66-196.2-5.75-5.17-176.73,196.27c-.74-.57-1.38-1.24-2.14-1.77L474.47,42.7l-6.7-3.87-132.04,228.69c-.84-.4-1.62-.89-2.48-1.25L414.81,15.25l-7.36-2.39-81.59,251.12c-.9-.22-1.78-.45-2.7-.62L350.75.81l-7.69-.81-27.6,262.59c-.47-.01-.91-.14-1.38-.14s-.91.13-1.38.14L285.09,0l-7.69.81,27.59,262.55c-.92.17-1.8.4-2.7.62L220.7,12.86l-7.36,2.39,81.56,251.02c-.86.36-1.64.85-2.48,1.25L160.39,38.83l-6.7,3.87,131.97,228.58c-.77.53-1.41,1.2-2.14,1.77L106.79,76.77l-5.75,5.17,176.66,196.2c-.64.67-1.16,1.43-1.76,2.13L62.26,125.02l-4.55,6.25,213.63,155.22c-.48.78-.88,1.61-1.32,2.42L28.72,181.48l-3.15,7.06,241.27,107.42c-.31.86-.56,1.75-.82,2.63L7.67,243.68l-1.61,7.57,258.37,54.92c-.12.9-.2,1.81-.28,2.73H0v7.74h264.15c.07.92.16,1.83.28,2.73L6.06,374.28l1.61,7.57,258.37-54.92c.26.88.51,1.77.82,2.63L25.58,436.98l3.14,7.06,241.3-107.43c.44.81.83,1.64,1.32,2.42L57.71,494.25l4.55,6.25,213.69-155.25c.6.7,1.12,1.46,1.76,2.13l-176.66,196.2,5.75,5.17,176.73-196.27c.73.57,1.38,1.24,2.14,1.77l-131.97,228.58,6.7,3.87,132.04-228.69c.84.4,1.62.89,2.48,1.25l-81.56,251.02,7.36,2.39,81.59-251.12c.9.22,1.79.45,2.7.62l-27.59,262.55,7.69.81,27.6-262.59c.47.01.91.14,1.39.14s.91-.13,1.38-.14l27.6,262.59,7.69-.81-27.59-262.55c.92-.17,1.8-.4,2.7-.62l81.6,251.12,7.36-2.39-81.56-251.02c.86-.36,1.64-.85,2.48-1.25l132.03,228.69,6.7-3.87-131.97-228.58c.77-.53,1.41-1.2,2.14-1.77l176.73,196.27,5.75-5.17-176.66-196.2c.64-.67,1.16-1.43,1.76-2.13l213.69,155.25,4.55-6.25-213.63-155.21c.48-.78.88-1.61,1.32-2.42l241.3,107.43,3.14-7.06-241.27-107.42c.31-.86.56-1.75.82-2.63l258.37,54.92,1.61-7.57-258.37-54.92c.12-.9.2-1.81.28-2.73h264.15Z"/>
  </g>
</svg>