<svg width="20" height="20" viewBox="0 0 20 20" fill="none" xmlns="http://www.w3.org/2000/svg">
<path d="M13.3333 10.8333C13.5694 10.8333 13.7675 10.7533 13.9275 10.5933C14.0875 10.4333 14.1672 10.2356 14.1667 10C14.1667 9.76389 14.0867 9.56584 13.9267 9.40584C13.7667 9.24583 13.5689 9.16611 13.3333 9.16667H10C9.76389 9.16667 9.56583 9.24667 9.40583 9.40667C9.24583 9.56667 9.16611 9.76445 9.16667 10C9.16667 10.2361 9.24667 10.4342 9.40667 10.5942C9.56667 10.7542 9.76445 10.8339 10 10.8333H13.3333ZM13.3333 7.5C13.5694 7.5 13.7675 7.42 13.9275 7.26C14.0875 7.1 14.1672 6.90222 14.1667 6.66667C14.1667 6.43056 14.0867 6.2325 13.9267 6.0725C13.7667 5.9125 13.5689 5.83278 13.3333 5.83334H10C9.76389 5.83334 9.56583 5.91334 9.40583 6.07334C9.24583 6.23334 9.16611 6.43111 9.16667 6.66667C9.16667 6.90278 9.24667 7.10084 9.40667 7.26084C9.56667 7.42084 9.76445 7.50056 10 7.5H13.3333ZM14.1667 16.6667H12.5C12.2639 16.6667 12.0658 16.5867 11.9058 16.4267C11.7458 16.2667 11.6661 16.0689 11.6667 15.8333C11.6667 15.5972 11.7467 15.3992 11.9067 15.2392C12.0667 15.0792 12.2644 14.9994 12.5 15H14.1667V13.3333C14.1667 13.0972 14.2467 12.8992 14.4067 12.7392C14.5667 12.5792 14.7644 12.4994 15 12.5C15.2361 12.5 15.4342 12.58 15.5942 12.74C15.7542 12.9 15.8339 13.0978 15.8333 13.3333V15H17.5C17.7361 15 17.9342 15.08 18.0942 15.24C18.2542 15.4 18.3339 15.5978 18.3333 15.8333C18.3333 16.0694 18.2533 16.2675 18.0933 16.4275C17.9333 16.5875 17.7356 16.6672 17.5 16.6667H15.8333V18.3333C15.8333 18.5694 15.7533 18.7675 15.5933 18.9275C15.4333 19.0875 15.2356 19.1672 15 19.1667C14.7639 19.1667 14.5658 19.0867 14.4058 18.9267C14.2458 18.7667 14.1661 18.5689 14.1667 18.3333V16.6667ZM6.66667 14.1667C6.90278 14.1667 7.10084 14.0867 7.26084 13.9267C7.42084 13.7667 7.50056 13.5689 7.5 13.3333C7.5 13.0972 7.42 12.8992 7.26 12.7392C7.1 12.5792 6.90222 12.4994 6.66667 12.5C6.43056 12.5 6.2325 12.58 6.0725 12.74C5.9125 12.9 5.83278 13.0978 5.83333 13.3333C5.83333 13.5694 5.91333 13.7675 6.07333 13.9275C6.23333 14.0875 6.43111 14.1672 6.66667 14.1667ZM6.66667 10.8333C6.90278 10.8333 7.10084 10.7533 7.26084 10.5933C7.42084 10.4333 7.50056 10.2356 7.5 10C7.5 9.76389 7.42 9.56584 7.26 9.40584C7.1 9.24583 6.90222 9.16611 6.66667 9.16667C6.43056 9.16667 6.2325 9.24667 6.0725 9.40667C5.9125 9.56667 5.83278 9.76445 5.83333 10C5.83333 10.2361 5.91333 10.4342 6.07333 10.5942C6.23333 10.7542 6.43111 10.8339 6.66667 10.8333ZM6.66667 7.5C6.90278 7.5 7.10084 7.42 7.26084 7.26C7.42084 7.1 7.50056 6.90222 7.5 6.66667C7.5 6.43056 7.42 6.2325 7.26 6.0725C7.1 5.9125 6.90222 5.83278 6.66667 5.83334C6.43056 5.83334 6.2325 5.91334 6.0725 6.07334C5.9125 6.23334 5.83278 6.43111 5.83333 6.66667C5.83333 6.90278 5.91333 7.10084 6.07333 7.26084C6.23333 7.42084 6.43111 7.50056 6.66667 7.5ZM4.16667 17.5C3.70833 17.5 3.31583 17.3367 2.98917 17.01C2.6625 16.6833 2.49945 16.2911 2.5 15.8333V4.16667C2.5 3.70833 2.66333 3.31583 2.99 2.98917C3.31667 2.6625 3.70889 2.49945 4.16667 2.5H15.8333C16.2917 2.5 16.6842 2.66333 17.0108 2.99C17.3375 3.31667 17.5006 3.70889 17.5 4.16667V11.5208C17.125 11.2986 16.7256 11.1319 16.3017 11.0208C15.8778 10.9097 15.4439 10.8542 15 10.8542C14.2639 10.8542 13.5764 11 12.9375 11.2917C12.2986 11.5833 11.75 11.9861 11.2917 12.5H10C9.76389 12.5 9.56583 12.58 9.40583 12.74C9.24583 12.9 9.16611 13.0978 9.16667 13.3333C9.16667 13.5694 9.24667 13.7675 9.40667 13.9275C9.56667 14.0875 9.76445 14.1672 10 14.1667H10.2917C10.1944 14.4306 10.1214 14.7014 10.0725 14.9792C10.0236 15.2569 9.99945 15.5417 10 15.8333C10 16.1111 10.0208 16.3889 10.0625 16.6667C10.1042 16.9444 10.1736 17.2222 10.2708 17.5H4.16667Z" fill="#383838"/>
</svg>
