<svg width="24" height="24" viewBox="0 0 24 24" fill="none" xmlns="http://www.w3.org/2000/svg">
<path d="M11.3 14.8C11.4833 14.9833 11.7167 15.075 12 15.075C12.2833 15.075 12.5167 14.9833 12.7 14.8L15.8 11.7C15.9833 11.5167 16.075 11.2873 16.075 11.012C16.075 10.7373 15.975 10.5 15.775 10.3C15.5917 10.1167 15.3583 10.025 15.075 10.025C14.7917 10.025 14.5583 10.1167 14.375 10.3L12 12.675L9.6 10.275C9.41667 10.0917 9.18767 10 8.913 10C8.63767 10 8.4 10.1 8.2 10.3C8.01667 10.4833 7.925 10.7167 7.925 11C7.925 11.2833 8.01667 11.5167 8.2 11.7L11.3 14.8ZM12 22C10.6167 22 9.31667 21.7373 8.1 21.212C6.88333 20.6873 5.825 19.975 4.925 19.075C4.025 18.175 3.31267 17.1167 2.788 15.9C2.26267 14.6833 2 13.3833 2 12C2 10.6167 2.26267 9.31667 2.788 8.1C3.31267 6.88333 4.025 5.825 4.925 4.925C5.825 4.025 6.88333 3.31233 8.1 2.787C9.31667 2.26233 10.6167 2 12 2C13.3833 2 14.6833 2.26233 15.9 2.787C17.1167 3.31233 18.175 4.025 19.075 4.925C19.975 5.825 20.6873 6.88333 21.212 8.1C21.7373 9.31667 22 10.6167 22 12C22 13.3833 21.7373 14.6833 21.212 15.9C20.6873 17.1167 19.975 18.175 19.075 19.075C18.175 19.975 17.1167 20.6873 15.9 21.212C14.6833 21.7373 13.3833 22 12 22Z" fill="black"/>
</svg>
