<svg width="16" height="16" viewBox="0 0 16 16" fill="none" xmlns="http://www.w3.org/2000/svg">
<path d="M6.98864 4.46539C6.98854 4.28216 7.03879 4.10241 7.1339 3.94579C7.22901 3.78917 7.36532 3.66169 7.52796 3.57728C7.6906 3.49286 7.8733 3.45476 8.05612 3.46712C8.23894 3.47949 8.41485 3.54185 8.56464 3.64739L13.5766 7.18339C13.7075 7.27573 13.8142 7.39813 13.8879 7.54031C13.9615 7.68248 14 7.84027 14 8.00039C14 8.16052 13.9615 8.31831 13.8879 8.46048C13.8142 8.60266 13.7075 8.72506 13.5766 8.81739L8.56464 12.3534C8.41492 12.4589 8.2391 12.5212 8.05637 12.5336C7.87364 12.5461 7.69101 12.508 7.5284 12.4237C7.3658 12.3394 7.22947 12.2121 7.13428 12.0556C7.0391 11.8992 6.98872 11.7195 6.98864 11.5364V9.23239L2.56464 12.3524C2.41506 12.4578 2.23943 12.5201 2.05687 12.5326C1.87431 12.5451 1.69183 12.5073 1.52929 12.4232C1.36675 12.3392 1.23039 12.2121 1.13506 12.0559C1.03973 11.8997 0.989086 11.7204 0.988638 11.5374V4.46539C0.988537 4.28216 1.03879 4.10241 1.1339 3.94579C1.22901 3.78917 1.36532 3.66169 1.52796 3.57728C1.6906 3.49286 1.8733 3.45476 2.05612 3.46712C2.23894 3.47949 2.41485 3.54185 2.56464 3.64739L6.98864 6.76839V4.46539Z" fill="black"/>
</svg>
