<svg width="16" height="16" viewBox="0 0 16 16" fill="none" xmlns="http://www.w3.org/2000/svg">
<path d="M6.66602 7.33301C7.01964 7.33301 7.35878 7.19253 7.60882 6.94248C7.85887 6.69243 7.99935 6.3533 7.99935 5.99967V2.66634C7.99935 2.31272 7.85887 1.97358 7.60882 1.72353C7.35878 1.47348 7.01964 1.33301 6.66602 1.33301H1.99935C1.64573 1.33301 1.30659 1.47348 1.05654 1.72353C0.806491 1.97358 0.666016 2.31272 0.666016 2.66634V5.99967C0.666016 6.3533 0.806491 6.69243 1.05654 6.94248C1.30659 7.19253 1.64573 7.33301 1.99935 7.33301H6.66602ZM6.66602 7.99967H1.99935C1.76602 7.99967 1.54135 7.95967 1.33268 7.88634V11.833C1.33268 12.4076 1.56096 12.9587 1.96728 13.3651C2.37361 13.7714 2.92471 13.9997 3.49935 13.9997H12.4993C12.7839 13.9997 13.0656 13.9436 13.3285 13.8347C13.5914 13.7259 13.8302 13.5663 14.0314 13.3651C14.2326 13.1639 14.3922 12.925 14.5011 12.6622C14.61 12.3993 14.666 12.1175 14.666 11.833V5.49967C14.666 5.21514 14.61 4.9334 14.5011 4.67053C14.3922 4.40766 14.2326 4.1688 14.0314 3.96761C13.8302 3.76642 13.5914 3.60682 13.3285 3.49794C13.0656 3.38905 12.7839 3.33301 12.4993 3.33301H8.66602V5.99967C8.66602 6.53011 8.4553 7.03882 8.08023 7.41389C7.70516 7.78896 7.19645 7.99967 6.66602 7.99967ZM9.49935 10.6663H10.626L8.81268 8.85301C8.76356 8.80723 8.72416 8.75203 8.69683 8.6907C8.6695 8.62937 8.65481 8.56316 8.65362 8.49602C8.65244 8.42889 8.66479 8.3622 8.68993 8.29994C8.71508 8.23768 8.75251 8.18113 8.79999 8.13365C8.84747 8.08617 8.90403 8.04874 8.96628 8.02359C9.02854 7.99845 9.09523 7.9861 9.16236 7.98728C9.2295 7.98846 9.29571 8.00316 9.35704 8.03049C9.41837 8.05782 9.47357 8.09722 9.51935 8.14634L11.3327 9.95967V8.83301C11.3327 8.7004 11.3854 8.57322 11.4791 8.47945C11.5729 8.38569 11.7001 8.33301 11.8327 8.33301C11.9653 8.33301 12.0925 8.38569 12.1862 8.47945C12.28 8.57322 12.3327 8.7004 12.3327 8.83301V11.1663C12.3327 11.2989 12.28 11.4261 12.1862 11.5199C12.0925 11.6137 11.9653 11.6663 11.8327 11.6663H9.49935C9.36674 11.6663 9.23956 11.6137 9.1458 11.5199C9.05203 11.4261 8.99935 11.2989 8.99935 11.1663C8.99935 11.0337 9.05203 10.9066 9.1458 10.8128C9.23956 10.719 9.36674 10.6663 9.49935 10.6663Z" fill="black"/>
</svg>
