<svg width="16" height="16" viewBox="0 0 16 16" fill="none" xmlns="http://www.w3.org/2000/svg">
<path d="M7.99964 4.46539C7.99974 4.28216 7.9495 4.10241 7.85439 3.94579C7.75927 3.78917 7.62296 3.66169 7.46032 3.57728C7.29769 3.49286 7.11498 3.45476 6.93216 3.46712C6.74934 3.47949 6.57343 3.54185 6.42364 3.64739L1.41164 7.18339C1.28082 7.27573 1.17408 7.39813 1.10041 7.54031C1.02674 7.68248 0.988281 7.84027 0.988281 8.00039C0.988281 8.16052 1.02674 8.31831 1.10041 8.46048C1.17408 8.60266 1.28082 8.72506 1.41164 8.81739L6.42364 12.3534C6.57336 12.4589 6.74918 12.5212 6.93191 12.5336C7.11464 12.5461 7.29728 12.508 7.45988 12.4237C7.62248 12.3394 7.75881 12.2121 7.854 12.0556C7.94918 11.8992 7.99956 11.7195 7.99964 11.5364V9.23239L12.4236 12.3524C12.5732 12.4578 12.7489 12.5201 12.9314 12.5326C13.114 12.5451 13.2965 12.5073 13.459 12.4232C13.6215 12.3392 13.7579 12.2121 13.8532 12.0559C13.9485 11.8997 13.9992 11.7204 13.9996 11.5374V4.46539C13.9997 4.28216 13.9495 4.10241 13.8544 3.94579C13.7593 3.78917 13.623 3.66169 13.4603 3.57728C13.2977 3.49286 13.115 3.45476 12.9322 3.46712C12.7493 3.47949 12.5734 3.54185 12.4236 3.64739L7.99964 6.76839V4.46539Z" fill="black"/>
</svg>
