<svg width="64" height="64" viewBox="0 0 64 64" fill="none" xmlns="http://www.w3.org/2000/svg">
<path d="M30.6667 8C37.7334 8 44.1333 10.6667 49.0667 14.9333L56 8V26.6667H37.3334L44.32 19.68C40.6134 16.5867 35.8934 14.6667 30.6667 14.6667C21.2267 14.6667 13.2 20.8267 10.4 29.3333L4.08002 27.2533C7.78668 16.08 18.2667 8 30.6667 8ZM24 32H40V37.3333H29.3334V42.6667H34.6667C36.0812 42.6667 37.4377 43.2286 38.4379 44.2288C39.4381 45.229 40 46.5855 40 48V53.3333C40 56.2933 37.6267 58.6667 34.6667 58.6667H24V53.3333H34.6667V48H24V32Z" fill="#F8F8F8"/>
</svg>
