<svg width="64" height="64" viewBox="0 0 64 64" fill="none" xmlns="http://www.w3.org/2000/svg">
<path d="M21.3333 53.3332H8.00001C7.29277 53.3332 6.61449 53.0522 6.11439 52.5521C5.61429 52.052 5.33334 51.3737 5.33334 50.6665V13.3332C5.33334 12.6259 5.61429 11.9477 6.11439 11.4476C6.61449 10.9475 7.29277 10.6665 8.00001 10.6665H56C56.7073 10.6665 57.3855 10.9475 57.8856 11.4476C58.3857 11.9477 58.6667 12.6259 58.6667 13.3332V21.3332" stroke="#F8F8F8" stroke-width="4" stroke-linecap="round" stroke-linejoin="round"/>
<path d="M56 32H34.6667C33.9594 32 33.2811 32.281 32.781 32.781C32.281 33.2811 32 33.9594 32 34.6667V50.6667C32 51.3739 32.281 52.0522 32.781 52.5523C33.2811 53.0524 33.9594 53.3333 34.6667 53.3333H56C56.7072 53.3333 57.3855 53.0524 57.8856 52.5523C58.3857 52.0522 58.6667 51.3739 58.6667 50.6667V34.6667C58.6667 33.9594 58.3857 33.2811 57.8856 32.781C57.3855 32.281 56.7072 32 56 32Z" stroke="#F8F8F8" stroke-width="4" stroke-linejoin="round"/>
</svg>
