<svg width="16" height="16" viewBox="0 0 16 16" fill="none" xmlns="http://www.w3.org/2000/svg">
<g clip-path="url(#clip0_595_56)">
<path fill-rule="evenodd" clip-rule="evenodd" d="M12.3327 3.66699H10.666C10.4008 3.66699 10.1464 3.56164 9.95891 3.3741C9.77137 3.18656 9.66602 2.93221 9.66602 2.66699C9.66602 2.40178 9.77137 2.14742 9.95891 1.95989C10.1464 1.77235 10.4008 1.66699 10.666 1.66699H12.666C13.108 1.66699 13.532 1.84259 13.8445 2.15515C14.1571 2.46771 14.3327 2.89163 14.3327 3.33366V5.33366C14.3327 5.59888 14.2273 5.85323 14.0398 6.04077C13.8523 6.2283 13.5979 6.33366 13.3327 6.33366C13.0675 6.33366 12.8131 6.2283 12.6256 6.04077C12.438 5.85323 12.3327 5.59888 12.3327 5.33366V3.66699ZM5.33268 3.66699H3.66602V5.33366C3.66602 5.59888 3.56066 5.85323 3.37312 6.04077C3.18559 6.2283 2.93123 6.33366 2.66602 6.33366C2.4008 6.33366 2.14645 6.2283 1.95891 6.04077C1.77137 5.85323 1.66602 5.59888 1.66602 5.33366V3.33366C1.66602 2.89163 1.84161 2.46771 2.15417 2.15515C2.46673 1.84259 2.89065 1.66699 3.33268 1.66699H5.33268C5.5979 1.66699 5.85225 1.77235 6.03979 1.95989C6.22733 2.14742 6.33268 2.40178 6.33268 2.66699C6.33268 2.93221 6.22733 3.18656 6.03979 3.3741C5.85225 3.56164 5.5979 3.66699 5.33268 3.66699ZM5.33268 12.3337H3.66602V10.667C3.66602 10.4018 3.56066 10.1474 3.37312 9.95989C3.18559 9.77235 2.93123 9.66699 2.66602 9.66699C2.4008 9.66699 2.14645 9.77235 1.95891 9.95989C1.77137 10.1474 1.66602 10.4018 1.66602 10.667V12.667C1.66602 13.109 1.84161 13.5329 2.15417 13.8455C2.46673 14.1581 2.89065 14.3337 3.33268 14.3337H5.33268C5.5979 14.3337 5.85225 14.2283 6.03979 14.0408C6.22733 13.8532 6.33268 13.5989 6.33268 13.3337C6.33268 13.0684 6.22733 12.8141 6.03979 12.6266C5.85225 12.439 5.5979 12.3337 5.33268 12.3337ZM10.666 12.3337H12.3327V10.667C12.3327 10.4018 12.438 10.1474 12.6256 9.95989C12.8131 9.77235 13.0675 9.66699 13.3327 9.66699C13.5979 9.66699 13.8523 9.77235 14.0398 9.95989C14.2273 10.1474 14.3327 10.4018 14.3327 10.667V12.667C14.3327 13.109 14.1571 13.5329 13.8445 13.8455C13.532 14.1581 13.108 14.3337 12.666 14.3337H10.666C10.4008 14.3337 10.1464 14.2283 9.95891 14.0408C9.77137 13.8532 9.66602 13.5989 9.66602 13.3337C9.66602 13.0684 9.77137 12.8141 9.95891 12.6266C10.1464 12.439 10.4008 12.3337 10.666 12.3337Z" fill="black"/>
</g>
<defs>
<clipPath id="clip0_595_56">
<rect width="16" height="16" fill="white"/>
</clipPath>
</defs>
</svg>
