<svg width="32" height="32" viewBox="0 0 32 32" fill="none" xmlns="http://www.w3.org/2000/svg">
<path d="M5.33329 5.33335L7.99996 10.6667H12L9.3333 5.33335H12L14.6666 10.6667H18.6666L16 5.33335H18.6666L21.3333 10.6667H25.3333L22.6666 5.33335H26.6666C27.4 5.33335 28.028 5.59468 28.5506 6.11735C29.0733 6.64001 29.3342 7.26757 29.3333 8.00001V24C29.3333 24.7333 29.072 25.3613 28.5493 25.884C28.0266 26.4067 27.3991 26.6676 26.6666 26.6667H5.33329C4.59996 26.6667 3.97196 26.4053 3.44929 25.8827C2.92663 25.36 2.66574 24.7325 2.66663 24V8.00001C2.66663 7.26668 2.92796 6.63868 3.45063 6.11601C3.97329 5.59335 4.60085 5.33246 5.33329 5.33335Z" fill="black"/>
</svg>
