<svg width="64" height="64" viewBox="0 0 64 64" fill="none" xmlns="http://www.w3.org/2000/svg">
<path d="M62 24.8201L59.18 22.0001L52 29.1801L44.82 22.0001L42 24.8201L49.18 32.0001L42 39.1801L44.82 42.0001L52 34.8201L59.18 42.0001L62 39.1801L54.82 32.0001L62 24.8201ZM36 60.0001C35.7354 59.999 35.4736 59.9454 35.2299 59.8424C34.9861 59.7395 34.7652 59.5891 34.58 59.4001L19.34 44.0001H6C5.46957 44.0001 4.96086 43.7894 4.58579 43.4144C4.21071 43.0393 4 42.5306 4 42.0001V22.0001C4 21.4697 4.21071 20.961 4.58579 20.5859C4.96086 20.2109 5.46957 20.0001 6 20.0001H19.34L34.58 4.60014C34.9547 4.22764 35.4616 4.01855 35.99 4.01855C36.5184 4.01855 37.0253 4.22764 37.4 4.60014C37.7768 4.9694 37.9925 5.4726 38 6.00014V58.0001C38 58.5306 37.7893 59.0393 37.4142 59.4144C37.0391 59.7894 36.5304 60.0001 36 60.0001Z" fill="#F8F8F8"/>
</svg>
