<svg width="200" height="191" viewBox="0 0 200 191" fill="none" xmlns="http://www.w3.org/2000/svg">
<rect x="0.525635" y="51.4336" width="126" height="144" rx="8" transform="rotate(-15 0.525635 51.4336)" fill="#F1EEEE"/>
<rect x="1.75038" y="52.1407" width="124" height="142" rx="7" transform="rotate(-15 1.75038 52.1407)" stroke="#FF3A5A" stroke-opacity="0.7" stroke-width="2" stroke-dasharray="8 8"/>
<rect x="78.27" y="19" width="126" height="144" rx="8" transform="rotate(15 78.27 19)" fill="#F1EEEE"/>
<rect x="78.9771" y="20.2247" width="124" height="142" rx="7" transform="rotate(15 78.9771 20.2247)" stroke="#FF3A5A" stroke-opacity="0.7" stroke-width="2" stroke-dasharray="8 8"/>
<rect x="37" width="126" height="189" rx="8" fill="#F1EEEE"/>
<rect x="38" y="1" width="124" height="187" rx="7" stroke="#FF3A5A" stroke-opacity="0.7" stroke-width="2" stroke-dasharray="8 8"/>
<g clip-path="url(#clip0_219_16)">
<path d="M106.333 101.333L129.667 86.3332L106.333 71.3332V101.333ZM94.6666 113C92.8333 113 91.2644 112.348 89.96 111.043C88.6533 109.737 88 108.167 88 106.333V66.3332C88 64.4998 88.6533 62.9298 89.96 61.6232C91.2644 60.3187 92.8333 59.6665 94.6666 59.6665H134.667C136.5 59.6665 138.07 60.3187 139.377 61.6232C140.681 62.9298 141.333 64.4998 141.333 66.3332V106.333C141.333 108.167 140.681 109.737 139.377 111.043C138.07 112.348 136.5 113 134.667 113H94.6666ZM81.3333 126.333C79.5 126.333 77.9311 125.681 76.6266 124.377C75.32 123.07 74.6666 121.5 74.6666 119.667V72.9998H81.3333V119.667H128V126.333H81.3333Z" fill="#FF3A5A" fill-opacity="0.7"/>
<path d="M78 70C78.2833 70 78.521 69.904 78.713 69.712C78.9043 69.5207 79 69.2833 79 69V66H82.025C82.3083 66 82.5417 65.904 82.725 65.712C82.9083 65.5207 83 65.2833 83 65C83 64.7167 82.904 64.479 82.712 64.287C82.5207 64.0957 82.2833 64 82 64H79V60.975C79 60.6917 78.9043 60.4583 78.713 60.275C78.521 60.0917 78.2833 60 78 60C77.7167 60 77.4793 60.0957 77.288 60.287C77.096 60.479 77 60.7167 77 61V64H73.975C73.6917 64 73.4583 64.0957 73.275 64.287C73.0917 64.479 73 64.7167 73 65C73 65.2833 73.0957 65.5207 73.287 65.712C73.479 65.904 73.7167 66 74 66H77V69.025C77 69.3083 77.096 69.5417 77.288 69.725C77.4793 69.9083 77.7167 70 78 70ZM78 75C76.6167 75 75.3167 74.7373 74.1 74.212C72.8833 73.6873 71.825 72.975 70.925 72.075C70.025 71.175 69.3127 70.1167 68.788 68.9C68.2627 67.6833 68 66.3833 68 65C68 63.6167 68.2627 62.3167 68.788 61.1C69.3127 59.8833 70.025 58.825 70.925 57.925C71.825 57.025 72.8833 56.3123 74.1 55.787C75.3167 55.2623 76.6167 55 78 55C79.3833 55 80.6833 55.2623 81.9 55.787C83.1167 56.3123 84.175 57.025 85.075 57.925C85.975 58.825 86.6873 59.8833 87.212 61.1C87.7373 62.3167 88 63.6167 88 65C88 66.3833 87.7373 67.6833 87.212 68.9C86.6873 70.1167 85.975 71.175 85.075 72.075C84.175 72.975 83.1167 73.6873 81.9 74.212C80.6833 74.7373 79.3833 75 78 75Z" fill="#FF3A5A"/>
</g>
<defs>
<clipPath id="clip0_219_16">
<rect width="80" height="80" fill="white" transform="translate(68 53)"/>
</clipPath>
</defs>
</svg>
