<svg width="40" height="40" viewBox="0 0 40 40" fill="none" xmlns="http://www.w3.org/2000/svg">
<path d="M15.8333 27.5L27.5 20L15.8333 12.5V27.5ZM20 36.6667C17.6944 36.6667 15.5278 36.2289 13.5 35.3534C11.4722 34.4789 9.70833 33.2917 8.20833 31.7917C6.70833 30.2917 5.52111 28.5278 4.64666 26.5C3.77111 24.4723 3.33333 22.3056 3.33333 20C3.33333 17.6945 3.77111 15.5278 4.64666 13.5C5.52111 11.4723 6.70833 9.70837 8.20833 8.20837C9.70833 6.70837 11.4722 5.5206 13.5 4.64504C15.5278 3.7706 17.6944 3.33337 20 3.33337C22.3055 3.33337 24.4722 3.7706 26.5 4.64504C28.5278 5.5206 30.2917 6.70837 31.7917 8.20837C33.2917 9.70837 34.4789 11.4723 35.3533 13.5C36.2289 15.5278 36.6667 17.6945 36.6667 20C36.6667 22.3056 36.2289 24.4723 35.3533 26.5C34.4789 28.5278 33.2917 30.2917 31.7917 31.7917C30.2917 33.2917 28.5278 34.4789 26.5 35.3534C24.4722 36.2289 22.3055 36.6667 20 36.6667Z" fill="white"/>
</svg>
