<svg width="28" height="28" viewBox="0 0 28 28" fill="none" xmlns="http://www.w3.org/2000/svg">
<g clip-path="url(#clip0_430_178)">
<path d="M2.33523 0.123185C2.47745 0.0418346 2.63857 -0.000647869 2.8024 7.46865e-06C2.96623 0.000662806 3.12701 0.0444329 3.26857 0.126918L17.9088 8.66692L13.3784 12.7437L1.8667 2.38372V0.933318C1.86656 0.768989 1.90982 0.607536 1.99209 0.465283C2.07436 0.323031 2.19273 0.205021 2.33523 0.123185ZM1.8667 4.89625V23.1037L11.984 14L1.8667 4.89625ZM1.8667 25.6163V27.0667C1.86665 27.2309 1.90993 27.3922 1.99218 27.5343C2.07442 27.6765 2.19272 27.7944 2.33512 27.8762C2.47752 27.958 2.63898 28.0008 2.8032 28.0003C2.96742 27.9997 3.12859 27.9558 3.27043 27.8731L17.9088 19.3331L13.3784 15.2563L1.8667 25.6163ZM19.6019 18.3456L25.6686 14.8064C25.8096 14.7242 25.9266 14.6065 26.0079 14.465C26.0892 14.3235 26.132 14.1632 26.132 14C26.132 13.8368 26.0892 13.6764 26.0079 13.535C25.9266 13.3935 25.8096 13.2758 25.6686 13.1936L19.6019 9.65438L14.7728 14L19.6019 18.3456Z" fill="black"/>
</g>
<defs>
<clipPath id="clip0_430_178">
<rect width="28" height="28" fill="white"/>
</clipPath>
</defs>
</svg>
