<svg width="64" height="64" viewBox="0 0 64 64" fill="none" xmlns="http://www.w3.org/2000/svg">
<path d="M33.3333 8C45.7333 8 56.2133 16.08 59.92 27.2533L53.6 29.3333C50.8 20.8267 42.7733 14.6667 33.3333 14.6667C28.1067 14.6667 23.3867 16.5867 19.68 19.68L26.6667 26.6667H8V8L14.9333 14.9333C19.8667 10.6667 26.2667 8 33.3333 8ZM24 32H40V37.3333H29.3333V42.6667H34.6667C36.0812 42.6667 37.4377 43.2286 38.4379 44.2288C39.4381 45.229 40 46.5855 40 48V53.3333C40 56.2933 37.6267 58.6667 34.6667 58.6667H24V53.3333H34.6667V48H24V32Z" fill="#F8F8F8"/>
</svg>
