<svg width="40" height="40" viewBox="0 0 40 40" fill="none" xmlns="http://www.w3.org/2000/svg">
<path d="M30 26.8002C28.7333 26.8002 27.6 27.3002 26.7333 28.0835L14.85 21.1668C14.9333 20.7835 15 20.4002 15 20.0002C15 19.6002 14.9333 19.2168 14.85 18.8335L26.6 11.9835C27.5 12.8168 28.6833 13.3335 30 13.3335C32.7667 13.3335 35 11.1002 35 8.3335C35 5.56683 32.7667 3.3335 30 3.3335C27.2333 3.3335 25 5.56683 25 8.3335C25 8.7335 25.0667 9.11683 25.15 9.50016L13.4 16.3502C12.5 15.5168 11.3167 15.0002 10 15.0002C7.23333 15.0002 5 17.2335 5 20.0002C5 22.7668 7.23333 25.0002 10 25.0002C11.3167 25.0002 12.5 24.4835 13.4 23.6502L25.2667 30.5835C25.1833 30.9335 25.1333 31.3002 25.1333 31.6668C25.1333 34.3502 27.3167 36.5335 30 36.5335C32.6833 36.5335 34.8667 34.3502 34.8667 31.6668C34.8667 28.9835 32.6833 26.8002 30 26.8002Z" fill="#F8F8F8"/>
</svg>
