<svg width="16" height="16" viewBox="0 0 16 16" fill="none" xmlns="http://www.w3.org/2000/svg">
<path d="M1.3359 7.81025C1.36057 6.58158 1.37324 5.96758 1.78124 5.44225C1.8638 5.33805 1.95599 5.24185 2.05657 5.15492C2.5579 4.73092 3.22057 4.73092 4.54524 4.73092C5.01857 4.73092 5.25524 4.73092 5.48057 4.66959C5.52724 4.65625 5.5739 4.64159 5.6199 4.62492C5.8399 4.54425 6.0379 4.40492 6.43324 4.12759C7.9919 3.03092 8.7719 2.48292 9.4259 2.72092C9.55124 2.76692 9.67257 2.83292 9.78124 2.91425C10.3466 3.33759 10.3899 4.32425 10.4759 6.29625C10.504 6.86366 10.5217 7.43153 10.5292 7.99959C10.5292 8.34692 10.5079 8.97292 10.4759 9.70292C10.3892 11.6749 10.3466 12.6616 9.78124 13.0849C9.67273 13.1662 9.55305 13.2313 9.4259 13.2783C8.77124 13.5163 7.99257 12.9683 6.43257 11.8716C6.0379 11.5943 5.8399 11.4549 5.61924 11.3743C5.57366 11.3574 5.5274 11.3425 5.48057 11.3296C5.25524 11.2683 5.01857 11.2683 4.54524 11.2683C3.22057 11.2683 2.55857 11.2683 2.05657 10.8443C1.95592 10.7576 1.86373 10.6616 1.78124 10.5576C1.37324 10.0309 1.36124 9.41759 1.3359 8.18892C1.33334 8.06249 1.33334 7.93668 1.3359 7.81025Z" fill="black"/>
<path fill-rule="evenodd" clip-rule="evenodd" d="M12.9942 3.70117C13.0396 3.66023 13.093 3.62919 13.1511 3.61004C13.2091 3.59089 13.2705 3.58405 13.3314 3.58994C13.3922 3.59584 13.4512 3.61435 13.5044 3.64429C13.5577 3.67423 13.6042 3.71494 13.6409 3.76384L13.2882 4.07784L13.6416 3.7645L13.6429 3.76584L13.6449 3.7685L13.6496 3.7745C13.6678 3.79892 13.6853 3.82382 13.7022 3.84917C13.7336 3.8965 13.7762 3.9645 13.8262 4.0525C13.9256 4.2285 14.0522 4.48717 14.1769 4.83317C14.4276 5.52717 14.6676 6.56717 14.6676 7.99984C14.6676 9.43317 14.4276 10.4732 14.1769 11.1665C14.0522 11.5132 13.9256 11.7712 13.8262 11.9478C13.7723 12.0436 13.7133 12.1364 13.6496 12.2258L13.6449 12.2318L13.6429 12.2338L13.6422 12.2352C13.6422 12.2352 13.6416 12.2358 13.2882 11.9218L13.6416 12.2358C13.6049 12.2848 13.5584 12.3256 13.505 12.3556C13.4517 12.3857 13.3926 12.4042 13.3317 12.4101C13.2708 12.416 13.2093 12.4091 13.1512 12.3899C13.0931 12.3707 13.0396 12.3396 12.9942 12.2985C12.8999 12.2117 12.8414 12.0928 12.8303 11.9651C12.8192 11.8375 12.8563 11.7102 12.9342 11.6085L12.9542 11.5812C12.9716 11.5545 13.0009 11.5078 13.0376 11.4432C13.1484 11.2417 13.2425 11.0314 13.3189 10.8145C13.5282 10.2338 13.7482 9.3125 13.7482 7.99984C13.7482 6.6865 13.5282 5.7665 13.3189 5.18517C13.2425 4.96847 13.1484 4.75843 13.0376 4.55717C13.0053 4.49933 12.9704 4.44304 12.9329 4.3885M11.8389 5.6105C12.0609 5.47917 12.3409 5.56384 12.4642 5.80117L12.4649 5.8025L12.4662 5.8045L12.4682 5.80917L12.4749 5.82117L12.4909 5.8565C12.5029 5.8845 12.5189 5.9225 12.5376 5.96984C12.5729 6.0665 12.6176 6.20317 12.6609 6.38317C12.7476 6.74317 12.8289 7.2745 12.8289 7.99984C12.8289 8.72584 12.7476 9.25717 12.6609 9.61717C12.6176 9.79717 12.5729 9.93384 12.5369 10.0298C12.518 10.0802 12.4971 10.1298 12.4742 10.1785L12.4682 10.1905L12.4662 10.1952L12.4649 10.1972V10.1985C12.4649 10.1985 12.4642 10.1992 12.0622 9.96117L12.4642 10.1992C12.3409 10.4358 12.0609 10.5212 11.8389 10.3898C11.6189 10.2592 11.5389 9.9645 11.6576 9.72917L11.6602 9.7225L11.6836 9.66584C11.7049 9.6085 11.7369 9.5125 11.7702 9.37384C11.8369 9.0965 11.9089 8.64717 11.9089 8.0005C11.9089 7.35317 11.8369 6.90384 11.7702 6.62717C11.7421 6.5082 11.7054 6.39144 11.6602 6.27784L11.6576 6.27117C11.5996 6.15834 11.5861 6.02787 11.6196 5.90554C11.6532 5.78322 11.7314 5.67794 11.8389 5.6105Z" fill="black"/>
</svg>
