<svg width="16" height="16" viewBox="0 0 16 16" fill="none" xmlns="http://www.w3.org/2000/svg">
<path d="M1.3359 7.81025C1.36057 6.58158 1.37324 5.96758 1.78124 5.44225C1.8638 5.33805 1.95599 5.24185 2.05657 5.15492C2.5579 4.73092 3.22057 4.73092 4.54524 4.73092C5.01857 4.73092 5.25524 4.73092 5.48057 4.66959C5.52724 4.65625 5.5739 4.64159 5.6199 4.62492C5.8399 4.54425 6.0379 4.40492 6.43324 4.12759C7.9919 3.03092 8.7719 2.48292 9.4259 2.72092C9.55124 2.76692 9.67257 2.83292 9.78124 2.91425C10.3466 3.33759 10.3899 4.32425 10.4759 6.29625C10.504 6.86366 10.5217 7.43153 10.5292 7.99959C10.5292 8.34692 10.5079 8.97292 10.4759 9.70292C10.3892 11.6749 10.3466 12.6616 9.78124 13.0849C9.67273 13.1662 9.55305 13.2313 9.4259 13.2783C8.77124 13.5163 7.99257 12.9683 6.43257 11.8716C6.0379 11.5943 5.8399 11.4549 5.61924 11.3743C5.57366 11.3574 5.5274 11.3425 5.48057 11.3296C5.25524 11.2683 5.01857 11.2683 4.54524 11.2683C3.22057 11.2683 2.55857 11.2683 2.05657 10.8443C1.95592 10.7576 1.86373 10.6616 1.78124 10.5576C1.37324 10.0309 1.36124 9.41759 1.3359 8.18892C1.33334 8.06249 1.33334 7.93668 1.3359 7.81025Z" fill="black"/>
<path opacity="0.4" fill-rule="evenodd" clip-rule="evenodd" d="M12.9935 3.70117C13.0389 3.66023 13.0923 3.62919 13.1504 3.61004C13.2084 3.59089 13.2698 3.58405 13.3307 3.58994C13.3915 3.59584 13.4505 3.61435 13.5037 3.64429C13.557 3.67423 13.6035 3.71494 13.6402 3.76384L13.6415 3.7645V3.76584L13.6442 3.7685L13.6489 3.7745C13.6668 3.79893 13.6842 3.82382 13.7009 3.84917C13.745 3.9153 13.7866 3.98313 13.8255 4.0525C13.9249 4.22917 14.0515 4.48717 14.1762 4.83317C14.4269 5.52717 14.6669 6.56717 14.6669 7.99984C14.6669 9.43317 14.4269 10.4732 14.1762 11.1665C14.0515 11.5132 13.9249 11.7712 13.8255 11.9478C13.7717 12.0436 13.7127 12.1364 13.6489 12.2258L13.6442 12.2318L13.6422 12.2338L13.6415 12.2352C13.6415 12.2352 13.6409 12.2358 13.2875 11.9218L13.6409 12.2358C13.6042 12.2849 13.5576 12.3258 13.5042 12.3559C13.4508 12.386 13.3917 12.4046 13.3307 12.4105C13.2697 12.4164 13.2081 12.4094 13.15 12.3902C13.0918 12.3709 13.0383 12.3397 12.9929 12.2985C12.8993 12.212 12.8413 12.0938 12.8301 11.9669C12.8189 11.84 12.8553 11.7134 12.9322 11.6118L12.9342 11.6085L12.9529 11.5818C12.9826 11.5367 13.0106 11.4904 13.0369 11.4432C13.1102 11.3132 13.2129 11.1058 13.3182 10.8145C13.5275 10.2338 13.7469 9.31317 13.7469 7.99984C13.7469 6.68717 13.5275 5.7665 13.3182 5.18517C13.2418 4.96846 13.1477 4.75841 13.0369 4.55717C13.0106 4.51013 12.9826 4.46409 12.9529 4.41917L12.9342 4.39184L12.9322 4.38917" fill="black"/>
<path opacity="0.7" fill-rule="evenodd" clip-rule="evenodd" d="M11.838 5.61063C12.06 5.4793 12.34 5.56396 12.4634 5.8013L12.464 5.80263L12.4654 5.80463L12.4674 5.8093L12.474 5.8213L12.49 5.85663C12.502 5.88463 12.518 5.92263 12.5367 5.96996C12.572 6.06663 12.6167 6.2033 12.66 6.3833C12.7467 6.7433 12.828 7.27463 12.828 7.99996C12.828 8.72596 12.7467 9.2573 12.66 9.6173C12.6167 9.7973 12.572 9.93396 12.536 10.03C12.5171 10.0803 12.4962 10.1299 12.4734 10.1786L12.4674 10.1906L12.4654 10.1953L12.464 10.1973V10.1986C12.464 10.1986 12.4634 10.1993 12.0614 9.9613L12.4634 10.1993C12.34 10.436 12.06 10.5213 11.838 10.39C11.618 10.2593 11.538 9.96463 11.6567 9.7293L11.6594 9.72263C11.7044 9.60923 11.7412 9.4927 11.7694 9.37396C11.836 9.09663 11.908 8.6473 11.908 8.00063C11.908 7.3533 11.836 6.90396 11.7694 6.62663C11.7412 6.50789 11.7044 6.39136 11.6594 6.27796L11.6567 6.2713C11.5374 6.0353 11.618 5.74063 11.838 5.61063Z" fill="black"/>
</svg>
