<svg width="32" height="32" viewBox="0 0 32 32" fill="none" xmlns="http://www.w3.org/2000/svg">
<path d="M14.9333 21.3333C14.9333 20.7676 14.7085 20.2249 14.3085 19.8249C13.9084 19.4248 13.3658 19.2 12.8 19.2C12.2342 19.2 11.6915 19.4248 11.2915 19.8249C10.8914 20.2249 10.6666 20.7676 10.6666 21.3333C10.6666 21.8991 10.8914 22.4418 11.2915 22.8418C11.6915 23.2419 12.2342 23.4667 12.8 23.4667C13.3658 23.4667 13.9084 23.2419 14.3085 22.8418C14.7085 22.4418 14.9333 21.8991 14.9333 21.3333Z" fill="black"/>
<path fill-rule="evenodd" clip-rule="evenodd" d="M2.1333 3.2C2.1333 2.35131 2.47044 1.53737 3.07056 0.937258C3.67068 0.337142 4.48461 0 5.3333 0L22.8416 0L29.8666 7.02507V28.8C29.8666 29.6487 29.5295 30.4626 28.9294 31.0627C28.3293 31.6629 27.5153 32 26.6666 32H5.3333C4.48461 32 3.67068 31.6629 3.07056 31.0627C2.47044 30.4626 2.1333 29.6487 2.1333 28.8V3.2ZM15.6629 8.5888C15.8752 8.51798 16.1044 8.51573 16.318 8.58234C16.5316 8.64896 16.7189 8.78108 16.8533 8.96L17.4933 9.81333C18.1888 10.7407 19.0907 11.4933 20.1274 12.0117C21.1642 12.5301 22.3075 12.8 23.4666 12.8V14.9333C21.1052 14.9333 18.8267 14.0629 17.0666 12.4885V21.3333C17.0667 22.2726 16.7568 23.1856 16.185 23.9307C15.6132 24.6759 14.8116 25.2116 13.9043 25.4547C12.9971 25.6978 12.035 25.6348 11.1672 25.2754C10.2995 24.9159 9.57458 24.2802 9.10495 23.4668C8.63532 22.6534 8.44721 21.7078 8.5698 20.7766C8.69238 19.8454 9.11882 18.9806 9.78296 18.3165C10.4471 17.6523 11.3118 17.2259 12.243 17.1033C13.1742 16.9807 14.1199 17.1688 14.9333 17.6384V9.6C14.9335 9.37622 15.004 9.15816 15.135 8.97669C15.2659 8.79521 15.4506 8.65952 15.6629 8.5888Z" fill="black"/>
</svg>
