<svg width="32" height="32" viewBox="0 0 32 32" fill="none" xmlns="http://www.w3.org/2000/svg">
<path d="M15.9867 2.66663C8.62666 2.66663 2.66666 8.63996 2.66666 16C2.66666 23.36 8.62666 29.3333 15.9867 29.3333C23.36 29.3333 29.3333 23.36 29.3333 16C29.3333 8.63996 23.36 2.66663 15.9867 2.66663ZM21.3333 21.3333C21.21 21.4569 21.0635 21.555 20.9022 21.6219C20.7409 21.6888 20.568 21.7232 20.3933 21.7232C20.2187 21.7232 20.0458 21.6888 19.8845 21.6219C19.7232 21.555 19.5767 21.4569 19.4533 21.3333L15.0667 16.9466C14.9407 16.8231 14.8405 16.6759 14.7718 16.5134C14.7031 16.3509 14.6674 16.1764 14.6667 16V10.6666C14.6667 9.93329 15.2667 9.33329 16 9.33329C16.7333 9.33329 17.3333 9.93329 17.3333 10.6666V15.4533L21.3333 19.4533C21.8533 19.9733 21.8533 20.8133 21.3333 21.3333Z" fill="white"/>
</svg>
