<svg width="64" height="64" viewBox="0 0 64 64" fill="none" xmlns="http://www.w3.org/2000/svg">
<path d="M8.07407 45.8616C6.91975 45.8616 5.95148 45.4333 5.16926 44.5766C4.38975 43.7229 4 42.6639 4 41.3997V23.5521C4 22.2879 4.38975 21.2275 5.16926 20.3708C5.95148 19.5171 6.91975 19.0902 8.07407 19.0902H20.2963L33.7407 4.36596C35.0309 2.95303 36.507 2.63624 38.1693 3.41558C39.8342 4.1979 40.6667 5.59299 40.6667 7.60084V57.351C40.6667 59.3589 39.8342 60.7525 38.1693 61.5318C36.507 62.3141 35.0309 61.9988 33.7407 60.5859L20.2963 45.8616H8.07407ZM48.8148 50.3235V14.4052C51.8704 15.9669 54.3311 18.3838 56.197 21.6558C58.0657 24.9279 59 28.5346 59 32.4759C59 36.4173 58.0657 39.9868 56.197 43.1845C54.3311 46.3822 51.8704 48.7619 48.8148 50.3235Z" fill="#F8F8F8"/>
</svg>
