<svg width="64" height="64" viewBox="0 0 64 64" fill="none" xmlns="http://www.w3.org/2000/svg">
<path d="M46.7361 63.6827C45.7176 64.1505 44.7755 64.0043 43.9097 63.2441C43.044 62.484 42.6111 61.4315 42.6111 60.0866C42.6111 59.4433 42.7771 58.8738 43.1092 58.3779C43.4392 57.8798 43.8588 57.5137 44.3681 57.2798C48.4421 55.4086 51.7146 52.4265 54.1856 48.3333C56.6544 44.2401 57.8889 39.6207 57.8889 34.475C57.8889 29.3293 56.6544 24.7099 54.1856 20.6167C51.7146 16.5235 48.4421 13.5414 44.3681 11.6702C43.8079 11.4363 43.375 11.0562 43.0694 10.53C42.7639 10.0037 42.6111 9.41895 42.6111 8.77574C42.6111 7.48932 43.044 6.46602 43.9097 5.70586C44.7755 4.9457 45.7176 4.79952 46.7361 5.26731C51.9306 7.66474 56.1065 11.4948 59.2639 16.7574C62.4213 22.0201 64 27.9259 64 34.475C64 41.0241 62.4213 46.9299 59.2639 52.1926C56.1065 57.4552 51.9306 61.2853 46.7361 63.6827ZM12.0556 45.088C11.1898 45.088 10.4646 44.7512 9.88 44.0776C9.29333 43.4063 9 42.5736 9 41.5796V27.5458C9 26.5518 9.29333 25.718 9.88 25.0443C10.4646 24.3731 11.1898 24.0374 12.0556 24.0374H21.2222L31.3056 12.4596C32.2731 11.3486 33.3803 11.0995 34.6269 11.7123C35.8756 12.3274 36.5 13.4244 36.5 15.0032V54.1222C36.5 55.701 35.8756 56.7968 34.6269 57.4096C33.3803 58.0248 32.2731 57.7768 31.3056 56.6658L21.2222 45.088H12.0556ZM42.6111 48.5964V20.3536C44.9028 21.5815 46.7483 23.4819 48.1478 26.0548C49.5493 28.6276 50.25 31.4636 50.25 34.5627C50.25 37.6618 49.5493 40.4686 48.1478 42.9829C46.7483 45.4973 44.9028 47.3685 42.6111 48.5964Z" fill="#F8F8F8"/>
</svg>
