<svg width="48" height="48" viewBox="0 0 48 48" fill="none" xmlns="http://www.w3.org/2000/svg">
<g clip-path="url(#clip0_160_41)">
<path d="M6.72 37.92L0 31.2V48H16.8L10.08 41.28L20.496 30.912L17.088 27.504L6.72 37.92ZM41.28 10.08L48 16.8V0H31.2L37.92 6.72L27.504 17.088L30.912 20.496L41.28 10.08ZM37.92 41.28L31.2 48H48V31.2L41.28 37.92L30.912 27.504L27.504 30.912L37.896 41.304L37.92 41.28ZM10.08 6.72L16.8 0H0V16.8L6.72 10.08L17.088 20.496L20.496 17.088L10.08 6.72Z" fill="#F8F8F8"/>
</g>
<defs>
<clipPath id="clip0_160_41">
<rect width="48" height="48" fill="white"/>
</clipPath>
</defs>
</svg>
